<?xml version="1.0" encoding="utf-8"?>
<!-- Generator: Adobe Illustrator 24.1.2, SVG Export Plug-In . SVG Version: 6.00 Build 0)  -->
<svg version="1.1" id="_x39_b8dff4b-368a-4ab8-bc0b-59c96572f6a5"
	 xmlns="http://www.w3.org/2000/svg" xmlns:xlink="http://www.w3.org/1999/xlink" x="0px" y="0px" viewBox="0 0 883 711.9"
	 style="enable-background:new 0 0 883 711.9;" xml:space="preserve">
<style type="text/css">
	.st0{fill:#F2F2F2;}
	.st1{opacity:0.5;}
	.st2{fill:url(#SVGID_1_);}
	.st3{opacity:2.000000e-02;enable-background:new    ;}
	.st4{fill:url(#SVGID_2_);}
	.st5{fill:#FCCC63;}
	.st6{fill:#00B0FF;}
	.st7{opacity:5.000000e-02;enable-background:new    ;}
	.st8{fill:#FFFFFF;}
	.st9{opacity:0.2;}
	.st10{fill:url(#SVGID_3_);}
	.st11{fill:url(#SVGID_4_);}
	.st12{fill:#CA7070;}
	.st13{fill:#00695C;}
	.st14{opacity:0.2;fill:#FFFFFF;enable-background:new    ;}
	.st15{fill:#263238;}
	.st16{fill:#FF5252;}
	.st17{fill:#F6B9AD;}
	.st18{fill:none;stroke:#B3B3B3;stroke-miterlimit:10;}
	.st19{fill:url(#SVGID_5_);}
	.st20{fill:#3F3D56;}
	.st21{fill:#00B1FF;}
	.st22{font-family:'MyriadPro-Regular';}
	.st23{font-size:12px;}
</style>
<path class="st0" d="M646.3,102.9h180.9c5.5,0,10,4.5,10,10v1.8c0,5.5-4.5,10-10,10H646.3c-5.5,0-10-4.5-10-10v-1.8
	C636.3,107.4,640.8,102.9,646.3,102.9z"/>
<path class="st0" d="M691.3,121.4h180.9c5.5,0,10,4.5,10,10v1.8c0,5.5-4.5,10-10,10H691.3c-5.5,0-10-4.5-10-10v-1.8
	C681.3,125.8,685.8,121.4,691.3,121.4z"/>
<path class="st0" d="M615,137.5h180.9c5.5,0,10,4.5,10,10v1.8c0,5.5-4.5,10-10,10H615c-5.5,0-10-4.5-10-10v-1.8
	C605,141.9,609.5,137.5,615,137.5z"/>
<path class="st0" d="M147.3,345h180.9c5.5,0,10,4.5,10,10v1.8c0,5.5-4.5,10-10,10H147.3c-5.5,0-10-4.5-10-10V355
	C137.4,349.5,141.8,345,147.3,345z"/>
<path class="st0" d="M192.3,363.5h180.9c5.5,0,10,4.5,10,10v1.8c0,5.5-4.5,10-10,10H192.3c-5.5,0-10-4.5-10-10v-1.8
	C182.3,368,186.8,363.5,192.3,363.5z"/>
<path class="st0" d="M116,379.7h180.9c5.5,0,10,4.5,10,10v1.8c0,5.5-4.5,10-10,10H116c-5.5,0-10-4.5-10-10v-1.8
	C106,384,110.5,379.7,116,379.7z"/>
<g class="st1">
	
		<linearGradient id="SVGID_1_" gradientUnits="userSpaceOnUse" x1="600" y1="881.57" x2="600" y2="708.432" gradientTransform="matrix(1 0 0 1 -158.5 -172.07)">
		<stop  offset="0" style="stop-color:#808080;stop-opacity:0.25"/>
		<stop  offset="0.54" style="stop-color:#808080;stop-opacity:0.12"/>
		<stop  offset="1" style="stop-color:#808080;stop-opacity:0.1"/>
	</linearGradient>
	<path class="st2" d="M852.5,686.1c-4.8,0-115.7,48.2-244.3-78.7c-69.8-68.9-138.2-76.3-186.1-68.6c-29.5,4.7-56.3,19.1-77.6,39.9
		c-17.1,16.8-58.6,39.7-155.7,33.5C39.3,602.6,0,709.5,0,709.5h883C883,709.5,857.3,686.1,852.5,686.1z"/>
</g>
<path class="st0" d="M0,711.9c0,0,39.4-106.9,188.8-97.2c97.1,6.3,138.6-16.7,155.7-33.5c21.3-20.9,48.1-35.2,77.6-39.9
	c47.9-7.7,116.3-0.3,186.1,68.6c128.5,127,239.4,78.7,244.3,78.7s30.5,23.3,30.5,23.3L0,711.9L0,711.9z"/>
<path class="st3" d="M0,711.9c0,0,39.4-106.9,188.8-97.2c97.1,6.3,138.6-16.7,155.7-33.5c21.3-20.9,48.1-35.2,77.6-39.9
	c47.9-7.7,116.3-0.3,186.1,68.6c128.5,127,239.4,78.7,244.3,78.7s30.5,23.3,30.5,23.3L0,711.9L0,711.9z"/>
<path class="st0" d="M122.8,143.6h180.9c5.5,0,10,4.5,10,10v1.8c0,5.5-4.5,10-10,10H122.8c-5.5,0-10-4.5-10-10v-1.8
	C112.9,148.1,117.3,143.6,122.8,143.6z"/>
<path class="st0" d="M167.9,162.1h180.9c5.5,0,10,4.5,10,10v1.8c0,5.5-4.5,10-10,10H167.9c-5.5,0-10-4.5-10-10v-1.8
	C157.9,166.6,162.3,162.1,167.9,162.1z"/>
<path class="st0" d="M91.5,178.2h180.9c5.5,0,10,4.5,10,10v1.8c0,5.5-4.5,10-10,10H91.5c-5.5,0-10-4.5-10-10v-1.8
	C81.6,182.6,86,178.2,91.5,178.2z"/>
<g class="st1">
	
		<linearGradient id="SVGID_2_" gradientUnits="userSpaceOnUse" x1="226.55" y1="263.6" x2="226.55" y2="101.2" gradientTransform="matrix(1 0 0 1 0 -78)">
		<stop  offset="0" style="stop-color:#808080;stop-opacity:0.25"/>
		<stop  offset="0.54" style="stop-color:#808080;stop-opacity:0.12"/>
		<stop  offset="1" style="stop-color:#808080;stop-opacity:0.1"/>
	</linearGradient>
	<circle class="st4" cx="226.6" cy="104.4" r="81.2"/>
</g>
<circle class="st5" cx="226.6" cy="104.4" r="72.3"/>
<rect x="161" y="590.6" class="st6" width="62.9" height="46.7"/>
<path class="st6" d="M155.5,588.7l35.1-35.2c1.1-1.1,2.8-1.1,3.9,0l0,0l34.9,34.9c1.1,1.1,1.1,2.8,0,3.9c-0.5,0.5-1.2,0.8-1.9,0.8
	l-70,0.3c-1.5,0-2.8-1.2-2.8-2.7C154.7,590,155,589.3,155.5,588.7z"/>
<path class="st7" d="M155.5,588.7l35.1-35.2c1.1-1.1,2.8-1.1,3.9,0l0,0l34.9,34.9c1.1,1.1,1.1,2.8,0,3.9c-0.5,0.5-1.2,0.8-1.9,0.8
	l-70,0.3c-1.5,0-2.8-1.2-2.8-2.7C154.7,590,155,589.3,155.5,588.7z"/>
<path class="st8" d="M191.6,616.3h1.3c3.9,0,7.1,3.2,7.1,7.1v14l0,0h-15.5l0,0v-14C184.5,619.5,187.7,616.3,191.6,616.3z"/>
<circle class="st8" cx="192.6" cy="562.2" r="3.9"/>
<rect x="165.9" y="596.6" class="st8" width="14.8" height="11.2"/>
<rect x="172.6" y="596.6" class="st6" width="1.4" height="11.2"/>
<rect x="205.3" y="596.6" class="st8" width="14.8" height="11.2"/>
<rect x="211.9" y="596.6" class="st6" width="1.4" height="11.2"/>
<g class="st9">
	
		<linearGradient id="SVGID_3_" gradientUnits="userSpaceOnUse" x1="3399.0222" y1="713.17" x2="3399.0222" y2="713.17" gradientTransform="matrix(-1 0 0 1 3851.5 -172.07)">
		<stop  offset="0" style="stop-color:#808080;stop-opacity:0.25"/>
		<stop  offset="0.54" style="stop-color:#808080;stop-opacity:0.12"/>
		<stop  offset="1" style="stop-color:#808080;stop-opacity:0.1"/>
	</linearGradient>
	<path class="st10" d="M452.5,541.1L452.5,541.1C452.4,541.1,452.5,541.1,452.5,541.1z"/>
</g>
<g class="st9">
	
		<linearGradient id="SVGID_4_" gradientUnits="userSpaceOnUse" x1="3393.6389" y1="742.3" x2="3393.6389" y2="712.43" gradientTransform="matrix(-1 0 0 1 3851.5 -172.07)">
		<stop  offset="0" style="stop-color:#808080;stop-opacity:0.25"/>
		<stop  offset="0.54" style="stop-color:#808080;stop-opacity:0.12"/>
		<stop  offset="1" style="stop-color:#808080;stop-opacity:0.1"/>
	</linearGradient>
	<path class="st11" d="M454,570.2h0.1c0.1,0,0.1-0.1,0.1-0.1V570v-0.1c-0.1-0.2-0.3-0.6-0.5-0.8l-0.1-0.2c0-0.1,0-0.1,0-0.2v-0.1
		l2.2-7.1l0,0v-0.2c0,0,2.8,1.2,3.5,3.5c0.4,1.1,0.4,2.4,0.1,3.5l0,0l0,0v0.1l0,0v1.3h3c0.2-0.1-0.1-0.4-0.3-0.6L462,569l-0.2-0.2
		l0,0c-0.1-0.1-0.1-0.1-0.1-0.2v-0.1v-0.1h-0.1v-0.1c0.8-3.5-0.4-7.2-3.1-9.7l0,0c0.7-2.2,0.7-4.5,0-6.7c0.3-0.2,5.7-4.1,5.7-9.2
		c0-0.3,0-0.5,0-0.8c0,0,0.5-0.4,0-1.1v-0.1l0,0l0,0l0,0l0,0l0,0l0,0l0,0l0,0l0,0l0,0l0,0l0,0l0,0l0,0h-0.3c-0.2,0-0.4,0.1-0.6,0.2
		c0,0-0.3,1,0,1.3h-0.1c0,0-3.2,7-5.4,8l-0.2-0.1v-0.9v-0.1l0,0V549c0.2-0.1,0.5-0.3,0.7-0.5l0,0c0.1-0.1,0.1-0.2,0.2-0.2l0,0
		l0.1-0.1l0,0l0.1-0.1l0,0l0.1-0.1l0,0c0-0.1,0.1-0.2,0.1-0.3l0,0v-0.1l0,0v-0.2l0,0v-0.1l0,0c0,0,0-0.1,0-0.2
		c0-0.3-0.1-0.6-0.2-0.8c0-0.1,0-0.1-0.1-0.2V546l-0.1-0.1c0.1-0.1,0.1-0.1,0.2-0.2c0.1-0.1,0.3-0.1,0.5-0.1h0.4h0.1
		c0.1,0,0.1-0.1,0.2-0.1c0.1-0.1,0.2-0.1,0.3-0.1h-0.6h-0.1h-0.1H459h-0.1h-0.1h-0.1h-0.1h-0.1l0,0l-0.2-0.1c0.1,0,0.2,0.1,0.3,0.1
		h0.3h0.1l0,0l0,0l0,0l0,0l0,0l0,0l0,0l0,0h0.1l0,0l0,0l0,0l0,0l0,0l0,0l0,0v-0.1H459h0l0,0c-0.1,0-0.3,0-0.4,0h-0.3l0,0h-0.1l0,0
		h-0.1l0,0c0.3,0.1,0.7-0.1,0.8-0.4s-0.1-0.7-0.4-0.8l0.1-0.1c0.1-0.1,0.2-0.2,0.2-0.4c0-0.1,0-0.1,0-0.2l-0.1,0.1h-0.1
		c-0.2,0.1-0.4,0.2-0.7,0.2h-0.1c-0.2-0.1-0.4-0.1-0.6-0.2l-0.2-0.1l0,0h0h-0.1h-0.1h-0.5c-0.7,0-1.5,0.3-2,0.8
		c-0.1,0.1-0.2,0.3-0.3,0.4c-0.1-0.7,0.1-1.5,0.4-2.1h-0.1l0,0h-0.2l-0.1,0.2c0-0.2,0.1-0.5,0.3-0.7h-0.1c0.3-0.3,0.3-0.8,0-1.1
		c-0.5-0.7-1.3-0.2-1.3-0.2c-0.1,0.2-0.1,0.5-0.1,0.7l-0.1-0.1c-0.2,0.5-1.9,6.7,1,10.7c0,0.1,0,0.2,0,0.3v6.7l-2,9.2l0,0l0,0l0,0
		l-0.4,1.7L454,570.2L454,570.2z M454.5,548.5c0.2,0.1,0.3,0.2,0.5,0.3c0,0.1,0,0.1,0,0.2v0.9l-0.2,0.1
		C454.7,549.6,454.6,549.1,454.5,548.5L454.5,548.5z"/>
</g>
<path class="st12" d="M464.2,542.9c0,0,0.5-0.4,0-1.2s-1.5-0.2-1.5-0.2s-0.3,1.1,0,1.4S464.2,542.9,464.2,542.9z"/>
<path id="_x33_9458adb-bcd5-4769-9abe-182f7ae0ca71" class="st13" d="M458.8,572h2.4c0,0.2,0.1,0.5,0.2,0.6c0.3,0.4,1,0.8,0.7,1
	h-3.3L458.8,572L458.8,572z"/>
<path class="st14" d="M461.2,572.6c-0.2-0.2-0.2-0.4-0.2-0.6h0.2c0,0.2,0.1,0.5,0.2,0.6c0.3,0.4,1,0.8,0.7,1h-0.2
	C462.2,573.5,461.5,573,461.2,572.6z"/>
<path id="_x32_4b3a5d5-99f8-4317-aac1-7589e0408752" class="st13" d="M450.2,571.5l2.3,0.4c-0.1,0.3,0,0.5,0.1,0.8
	c0.3,0.5,0.8,1.2,0.5,1.3l-3.3-0.5L450.2,571.5z"/>
<path class="st13" d="M451.3,541.8c0,0-2.6,8.1,1.7,12.6l1.3-1c0,0-2.5-8.8-1.1-10.9C450.7,541.7,451.3,541.8,451.3,541.8z"/>
<path class="st12" d="M453.1,542.5c0,0,0.5-0.4,0-1.2s-1.5-0.2-1.5-0.2s-0.3,1.1,0,1.4S453.1,542.5,453.1,542.5z"/>
<path class="st14" d="M452.4,572.7c-0.1-0.2-0.2-0.5-0.1-0.8l-2.1-0.3l0,0l2.3,0.4c-0.1,0.3,0,0.5,0.1,0.8c0.3,0.5,0.8,1.2,0.5,1.3
	H453C453.2,573.8,452.6,573.2,452.4,572.7z"/>
<path class="st12" d="M455.3,553h-0.2c-0.6,0-1.1-0.5-1.1-1.1v-1.4c0-0.6,0.5-1.1,1.1-1.1h0.2c0.6,0,1.1,0.5,1.1,1.1v1.4
	C456.5,552.5,456,553,455.3,553z"/>
<path class="st14" d="M454.1,553.9c0,0-2.5-8.7-1.2-10.9h0.2l0,0h0.1c-1.4,2.1,1.1,10.9,1.1,10.9l-1.3,1l-0.1-0.1L454.1,553.9z"/>
<circle class="st12" cx="455.2" cy="547.9" r="2.7"/>
<path class="st14" d="M456.2,551.8v-1.2c0-0.1,0-0.2,0-0.3c1.3-0.7,1.9-2.3,1.2-3.6c-0.4-0.9-1.3-1.4-2.3-1.5h0.2
	c1.5,0,2.7,1.2,2.7,2.7c0,1-0.6,1.9-1.5,2.4c0,0.1,0,0.2,0,0.3v1.2c0,0.7-0.5,1.2-1.2,1.2h-0.2C455.7,552.9,456.2,552.4,456.2,551.8
	z"/>
<path class="st13" d="M452.5,561.4c0,0,5.2,0.6,5.4,0c0.8-2.4,0.8-5,0-7.4c0-1.5-1.2-2.7-2.7-2.7l0,0l0,0c-1.5,0-2.7,1.2-2.7,2.7
	l0,0L452.5,561.4L452.5,561.4z"/>
<path class="st15" d="M452.5,561.4l-2.3,10.8h2.3l2.4-8c0,0,3,1.3,3.8,3.9c0.5,1.3,0.5,2.8,0,4.1h2.5v-0.1c0.9-3.9-0.5-8-3.4-10.7
	l0,0"/>
<path class="st14" d="M457.5,561.4c0.8-2.4,0.8-5,0-7.4c0-1.4-1.1-2.6-2.5-2.7h0.2c1.5,0,2.7,1.2,2.7,2.7l0,0c0.8,2.4,0.8,5,0,7.4
	c-0.1,0.2-0.8,0.3-1.7,0.3C456.9,561.6,457.5,561.6,457.5,561.4z"/>
<path class="st13" d="M457.9,553.9c0,0,7-4.9,6.3-11.1h-1.6c0,0-3.8,8.1-6.1,8.9S457.9,553.9,457.9,553.9z"/>
<g class="st9">
	<path class="st8" d="M454.8,564.3l-2.4,7.9h-0.3l2.4-8L454.8,564.3z"/>
	<path class="st8" d="M457.5,561.4h0.3c3,2.7,4.3,6.8,3.4,10.7v0.1h-0.3v-0.1C461.8,568.2,460.5,564.1,457.5,561.4z"/>
</g>
<path class="st14" d="M463.9,542.9h0.3c0.7,6.2-6.3,11.1-6.3,11.1l-0.2-0.1C458.5,553.3,464.5,548.7,463.9,542.9z"/>
<path class="st15" d="M457.3,546.7c-0.1,0.3-0.3,0.7-0.3,1.1c-0.1,0.8-0.6,1.5-1.2,1.9c-0.4,0.2-0.8,0.3-1.2,0.3
	c-0.6,0.1-1.3-0.1-1.8-0.5c-0.3-0.3-0.5-0.7-0.5-1.1c-0.3-1.2,0.1-2.5,1-3.4s2.3-1.2,3.5-0.7c0.2,0.1,0.4,0.2,0.7,0.2
	c0.4,0.1,0.7,0,1-0.3c0.1,0.3-0.1,0.7-0.4,0.8c-0.1,0-0.1,0-0.2,0c0.4,0.2,0.9,0.2,1.3,0.1c-0.2,0.5-0.8,0.8-1.4,0.5
	c0.5,0.2,1,0.3,1.6,0.3c-0.1,0-0.3,0.2-0.5,0.3c-0.2,0-0.3,0-0.5,0C457.9,546.1,457.5,546.3,457.3,546.7z"/>
<g class="st9">
	<path class="st8" d="M457.7,544.9c0.2,0.1,0.4,0.1,0.6,0.2c-0.3,0-0.6,0-0.8-0.2c0.3,0,0.6-0.3,0.6-0.6c0,0,0,0,0-0.1l0.1-0.1
		c0.1,0.3-0.1,0.7-0.4,0.8C457.8,544.9,457.8,544.9,457.7,544.9z"/>
	<path class="st8" d="M457.2,544.5c-0.2-0.1-0.4-0.1-0.7-0.2c-0.3-0.1-0.7-0.2-1-0.2c0.4,0,0.8,0.1,1.2,0.2c0.2,0.1,0.4,0.2,0.7,0.2
		h0.1C457.4,544.5,457.3,544.5,457.2,544.5z"/>
	<path class="st8" d="M458.5,546.1c0.1,0,0.4-0.3,0.5-0.3c-0.5,0-1.1-0.1-1.6-0.3c0.1,0,0.2,0.1,0.3,0.1c0.4,0.2,0.9,0.3,1.4,0.2
		C459,545.8,458.8,546,458.5,546.1c0,0-0.1,0-0.3,0H458.5z"/>
	<path class="st8" d="M454.4,550c0.4,0,0.8-0.1,1.2-0.3c0.7-0.4,1.1-1.1,1.2-1.9c0.1-0.4,0.2-0.7,0.3-1.1c0.2-0.3,0.5-0.5,0.8-0.6
		h0.2c-0.4,0-0.7,0.2-0.8,0.6c-0.1,0.3-0.3,0.7-0.3,1.1c-0.1,0.8-0.6,1.5-1.2,1.9c-0.4,0.2-0.8,0.3-1.2,0.3H454.4z"/>
	<path class="st8" d="M457.9,545.6c0.4,0,0.7-0.2,0.9-0.6l0.2-0.1C458.8,545.4,458.4,545.7,457.9,545.6z"/>
</g>
<path class="st14" d="M464,542.9c0,0,0.5-0.4,0-1.2c-0.1-0.2-0.4-0.4-0.7-0.4c0.3,0,0.6,0.1,0.8,0.4
	C464.6,542.5,464.1,542.9,464,542.9c-0.2,0.1-0.6,0.1-0.9,0.1C463.4,543,463.7,542.9,464,542.9z"/>
<path class="st16" d="M475.9,533.1c0,0-2.6,8.1,1.7,12.6l1.3-1c0,0-2.5-8.8-1.1-10.9C475.3,533,475.9,533.1,475.9,533.1z"/>
<path class="st17" d="M477.7,533.9c0,0,0.5-0.4,0-1.2s-1.5-0.2-1.5-0.2s-0.3,1.1,0,1.4S477.7,533.9,477.7,533.9z"/>
<path class="st17" d="M479.9,544.3h-0.2c-0.6,0-1.1-0.5-1.1-1.1v-1.4c0-0.6,0.5-1.1,1.1-1.1h0.2c0.6,0,1.1,0.5,1.1,1.1v1.4
	C481.1,543.8,480.5,544.3,479.9,544.3z"/>
<path class="st14" d="M478.7,545.3c0,0-2.5-8.7-1.2-10.9h0.2l0,0h0.1c-1.4,2.1,1.1,10.9,1.1,10.9l-1.3,1l-0.1-0.1L478.7,545.3z"/>
<circle class="st17" cx="479.8" cy="539.3" r="2.7"/>
<path class="st14" d="M480.7,543.1v-1.2c0-0.1,0-0.2,0-0.3c1.3-0.7,1.9-2.3,1.2-3.6c-0.4-0.9-1.3-1.4-2.3-1.5h0.2
	c1.5,0,2.7,1.2,2.7,2.7c0,1-0.6,1.9-1.5,2.4c0,0.1,0,0.2,0,0.3v1.2c0,0.7-0.5,1.2-1.2,1.2h-0.2C480.3,544.2,480.8,543.7,480.7,543.1
	z"/>
<path class="st16" d="M477,552.7c0,0,5.2,0.6,5.4,0c0.6-1.9-1-4-0.2-5c0.5-0.7,0.6-1.6,0.2-2.4c0-1.5-1.2-2.7-2.7-2.7l0,0l0,0
	c-1.5,0-2.7,1.2-2.7,2.7l0,0L477,552.7L477,552.7z"/>
<path class="st14" d="M482.2,547.8c0.5-0.7,0.6-1.6,0.2-2.4c0-1.5-1.2-2.7-2.7-2.7l0,0h-0.2c1.4,0.1,2.5,1.3,2.5,2.7
	c0.4,0.8,0.3,1.7-0.2,2.4c-0.8,1,0.8,3.1,0.2,5c-0.1,0.2-0.6,0.3-1.3,0.3c0.9,0,1.6,0,1.7-0.3C483.1,550.8,481.4,548.8,482.2,547.8z
	"/>
<path class="st17" d="M481.3,552.6L481.3,552.6c2,3.2,2.8,7,2.2,10.7v0.1h-1.6c0.3-1.3,0.3-2.7,0-4.1c-0.3-1.6-1.2-3-2.5-3.9l-1.6,8
	h-1.5l1.5-10.8H481.3z"/>
<path class="st17" d="M490.5,537c0,0,0.6-0.3,0.4-1.2s-1.4-0.6-1.4-0.6s-0.7,1-0.4,1.3S490.5,537,490.5,537z"/>
<path class="st16" d="M481.3,545.8c0,0,8.1-2.6,9.2-8.7l-1.5-0.5c0,0-6,6.7-8.5,6.7S481.3,545.8,481.3,545.8z"/>
<path class="st14" d="M490.2,537l0.3,0.1c-1.2,6.1-9.2,8.7-9.2,8.7l-0.1-0.1C482,545.4,489.1,542.7,490.2,537z"/>
<g class="st9">
	<path class="st8" d="M479.1,555.3l-1.6,8h0.3l1.5-7.8C479.3,555.5,479.2,555.4,479.1,555.3z"/>
	<path class="st8" d="M481.3,552.6H481c2,3.2,2.8,7,2.2,10.7v0.1h0.3v-0.1C484.1,559.5,483.3,555.7,481.3,552.6z"/>
</g>
<path class="st14" d="M490.3,536.9c0,0,0.6-0.3,0.4-1.2c-0.1-0.3-0.3-0.5-0.5-0.6c0.3,0.1,0.6,0.3,0.7,0.6c0.3,0.9-0.4,1.2-0.4,1.2
	c-0.3,0-0.7-0.1-1-0.2C489.8,536.9,490,536.9,490.3,536.9z"/>
<path class="st15" d="M477,552.4l-3.3,6.9c1.9,0.1,3.8,0.3,5.7,0.7c3.6,0.7,5.4-1,5.4-1l-2.3-6.6L477,552.4L477,552.4z"/>
<path class="st16" d="M477.9,563.3c0,0,1.7,0.3,1.4,1h-3.1l0.2-1H477.9z"/>
<path class="st16" d="M483.4,563.3c0,0,1.7,0.3,1.4,1h-3.1l0.2-1H483.4z"/>
<path class="st5" d="M482.2,537c0,0-4.2,5.9-2.3,8.3l-7.4-0.2C472.5,545.2,474.6,531.9,482.2,537z"/>
<path class="st14" d="M482.2,537c-0.9-0.6-1.8-1-2.9-1.2c0.7,0.2,1.4,0.6,2,1c0,0-4.2,5.9-2.3,8.3l-6.5-0.2v0.2l7.4,0.2
	C478.1,542.9,482.2,537,482.2,537z"/>
<path class="st14" d="M482.5,552.4H482l2.3,6.6c-1,0.8-2.2,1.2-3.4,1.2c1.4,0.1,2.9-0.3,4-1.2L482.5,552.4z"/>
<path class="st14" d="M477.9,563.3h-0.3c0,0,1.7,0.3,1.4,1h0.3C479.6,563.7,477.9,563.3,477.9,563.3z"/>
<path class="st14" d="M483.4,563.3h-0.3c0,0,1.7,0.3,1.4,1h0.3C485.2,563.7,483.4,563.3,483.4,563.3z"/>
<polyline class="st18" points="724.3,467 714.6,413.2 745.2,411.7 745.2,467 766.1,467 786.9,407.6 "/>
<path class="st6" d="M730.7,461.4h29c15.1,0,27.3,12.2,27.3,27.3v4.9c0,15.1-12.2,27.3-27.3,27.3h-29c-15.1,0-27.3-12.2-27.3-27.3
	v-4.9C703.4,473.6,715.6,461.4,730.7,461.4z"/>
<path class="st7" d="M758,461.4h-24.1c-16.4,0-29.7,13.3-29.7,29.7l0,0c0,0.7,0,1.3,0.1,2c1.1-15.6,14-27.7,29.7-27.7h24
	c15.6,0.1,28.6,12.1,29.7,27.7c0-0.7,0.1-1.3,0.1-2l0,0C787.7,474.7,774.4,461.5,758,461.4z"/>
<linearGradient id="SVGID_5_" gradientUnits="userSpaceOnUse" x1="909.35" y1="596.87" x2="909.35" y2="348.27" gradientTransform="matrix(1 0 0 1 -158.5 -172.07)">
	<stop  offset="0" style="stop-color:#808080;stop-opacity:0.25"/>
	<stop  offset="0.54" style="stop-color:#808080;stop-opacity:0.12"/>
	<stop  offset="1" style="stop-color:#808080;stop-opacity:0.1"/>
</linearGradient>
<path class="st19" d="M871.9,300.5c0,68.7-57.4,124.3-118.4,124.3c-61.1,0-123.7-55.7-123.7-124.3s62.6-124.3,123.7-124.3
	S871.9,231.8,871.9,300.5z"/>
<path class="st6" d="M866.3,300.5c0,65.4-54.7,118.5-112.9,118.5s-117.9-53-117.9-118.5S695.2,182,753.4,182
	C811.6,182,866.3,235,866.3,300.5z"/>
<rect x="735.3" y="423.2" class="st6" width="26.2" height="9.1"/>
<g class="st9">
	<path d="M753.4,181.6c-1.4,0-2.8,0-4.2,0.1c56.6,2.4,108.7,54.5,108.7,118.4S805.8,416,749.3,418.5c1.4,0.1,2.8,0.1,4.2,0.1
		c58.2,0,112.9-53,112.9-118.5S811.6,181.6,753.4,181.6z"/>
</g>
<g class="st9">
	<path class="st8" d="M642.2,300.5c0-64.5,58-117,115.4-118.5c-0.8,0-1.7,0-2.5,0c-58.2,0-117.9,53-117.9,118.5S696.8,419,755,419
		c0.8,0,1.7,0,2.5,0C700.1,417.5,642.2,365,642.2,300.5z"/>
</g>
<rect x="712" y="402.4" class="st6" width="75.3" height="24.5"/>
<path class="st14" d="M712,190.6c0,0-89.4,102.2,0,219.7l29.5-0.1c0,0-81.5-97.1-3.7-227l-14.5,3.3L712,190.6z"/>
<path class="st14" d="M789.8,189c0,0,89.4,103.7,0,221.3l-29.5-0.1c0,0,81.5-98,3.7-227.9l14.5,2.9L789.8,189z"/>
<path class="st20" d="M741.3,177.9c-3,1-8.3,1.7-14.4,2.3c-16.5,1.4-39.1,1.4-39.1,1.4s-116.3,5.9-202.1-32.7c0,0-12.4-7-0.4-15.6
	c1.8-1.3,3.8-2.4,5.9-3.3l0.1-0.1c1.4-1.2,2.9-2.3,4.4-3.2c4.6-2.8,12.3-6,21.5-4.1l227.2,44.3C744.4,166.9,752.5,174.2,741.3,177.9
	z"/>
<path class="st20" d="M696.4,159.7l48.9-32.4l21,4.3l-21.8,35.2C744.4,166.9,696.7,165.7,696.4,159.7z"/>
<polygon class="st20" points="576.7,135.2 672.8,111.6 688,115.3 644.4,133.3 630.4,147.9 "/>
<path class="st21" d="M727,180.2c-16.5,1.4-39.1,1.4-39.1,1.4s-116.3,5.9-202.1-32.7c0,0-12.4-7-0.4-15.6v0.2
	c0,0,18.3,13.3,107.6,26.8L727,180.2z"/>
<path class="st20" d="M701.3,175.4l37.9,26l10.7,1.1l-20.8-24.1C729.1,178.5,700.4,165.5,701.3,175.4z"/>
<path class="st21" d="M500.7,135.8c-2,0-6.6-3.6-9.4-6c1.4-1.2,2.9-2.3,4.4-3.2c2.3,1.9,6.3,4.9,8.6,4.9
	C507.7,131.5,503.8,135.9,500.7,135.8z"/>
<path class="st20" d="M691,238.4l-27.4,0.5l-75.2-54.3l-14-10.1l-6.8-4.9c13.4-10.6,65.9,6.3,65.9,6.3c1,0.9,1.3,2.3,1.2,3.9
	c-0.2,2.9-1.7,6.4-2.3,7.6c-0.1,0.3-0.2,0.5-0.2,0.5L691,238.4z"/>
<text transform="matrix(1 0 0 1 723.5 496.15)" class="st8 st22 st23">Germany</text>
</svg>
